<svg width="20" height="20" viewBox="0 0 20 20" fill="none" xmlns="http://www.w3.org/2000/svg">
<path d="M6.66721 10C6.66721 8.15913 8.15913 6.6664 10 6.6664C11.8409 6.6664 13.3336 8.15913 13.3336 10C13.3336 11.8409 11.8409 13.3336 10 13.3336C8.15913 13.3336 6.66721 11.8409 6.66721 10ZM4.86511 10C4.86511 12.836 7.16397 15.1349 10 15.1349C12.836 15.1349 15.1349 12.836 15.1349 10C15.1349 7.16397 12.836 4.8651 10 4.8651C7.16397 4.8651 4.86511 7.16397 4.86511 10ZM14.1381 4.66155C14.1381 5.32391 14.6753 5.86187 15.3385 5.86187C16.0008 5.86187 16.5388 5.32391 16.5388 4.66155C16.5388 3.99919 16.0016 3.46204 15.3385 3.46204C14.6753 3.46204 14.1381 3.99919 14.1381 4.66155ZM5.95961 18.1397C4.98465 18.0953 4.45477 17.933 4.10259 17.7956C3.6357 17.6139 3.30291 17.3974 2.95234 17.0477C2.60259 16.6979 2.3853 16.3651 2.20436 15.8982C2.06704 15.546 1.90469 15.0162 1.86026 14.0412C1.81179 12.9871 1.8021 12.6704 1.8021 10C1.8021 7.32956 1.8126 7.01373 1.86026 5.9588C1.90469 4.98384 2.06785 4.45477 2.20436 4.10178C2.38611 3.63489 2.60259 3.3021 2.95234 2.95153C3.3021 2.60178 3.6349 2.38449 4.10259 2.20355C4.45477 2.06624 4.98465 1.90388 5.95961 1.85945C7.01373 1.81099 7.33037 1.80129 10 1.80129C12.6704 1.80129 12.9863 1.81179 14.0412 1.85945C15.0162 1.90388 15.5452 2.06704 15.8982 2.20355C16.3651 2.38449 16.6979 2.60178 17.0485 2.95153C17.3982 3.30129 17.6147 3.63489 17.7964 4.10178C17.9338 4.45396 18.0961 4.98384 18.1406 5.9588C18.189 7.01373 18.1987 7.32956 18.1987 10C18.1987 12.6696 18.189 12.9863 18.1406 14.0412C18.0961 15.0162 17.933 15.546 17.7964 15.8982C17.6147 16.3651 17.3982 16.6979 17.0485 17.0477C16.6987 17.3974 16.3651 17.6139 15.8982 17.7956C15.546 17.933 15.0162 18.0953 14.0412 18.1397C12.9871 18.1882 12.6704 18.1979 10 18.1979C7.33037 18.1979 7.01373 18.1882 5.95961 18.1397ZM5.87722 0.0605816C4.8126 0.109047 4.08562 0.277868 3.44992 0.52504C2.79241 0.780291 2.23506 1.12278 1.67851 1.67851C1.12278 2.23425 0.780291 2.7916 0.52504 3.44992C0.277868 4.08562 0.109047 4.8126 0.0605816 5.87722C0.0113086 6.94346 0 7.28433 0 10C0 12.7157 0.0113086 13.0565 0.0605816 14.1228C0.109047 15.1874 0.277868 15.9144 0.52504 16.5501C0.780291 17.2076 1.12197 17.7658 1.67851 18.3215C2.23425 18.8772 2.7916 19.2189 3.44992 19.475C4.08643 19.7221 4.8126 19.891 5.87722 19.9394C6.94427 19.9879 7.28433 20 10 20C12.7165 20 13.0565 19.9887 14.1228 19.9394C15.1874 19.891 15.9144 19.7221 16.5501 19.475C17.2076 19.2189 17.7649 18.8772 18.3215 18.3215C18.8772 17.7658 19.2189 17.2076 19.475 16.5501C19.7221 15.9144 19.8918 15.1874 19.9394 14.1228C19.9879 13.0557 19.9992 12.7157 19.9992 10C19.9992 7.28433 19.9879 6.94346 19.9394 5.87722C19.891 4.8126 19.7221 4.08562 19.475 3.44992C19.2189 2.79241 18.8772 2.23506 18.3215 1.67851C17.7658 1.12278 17.2076 0.780291 16.5509 0.52504C15.9144 0.277868 15.1874 0.108239 14.1236 0.0605816C13.0574 0.0121163 12.7165 0 10.0008 0C7.28433 0 6.94427 0.0113086 5.87722 0.0605816Z" fill="#555555"/>
</svg>
