<svg width="24" height="18" viewBox="0 0 24 18" fill="none" xmlns="http://www.w3.org/2000/svg">
<path d="M12.5311 17.2405L7.61361 17.1507C6.02144 17.1194 4.4253 17.1819 2.86434 16.8577C0.489764 16.3734 0.321541 13.9986 0.145513 12.0067C-0.097036 9.20625 -0.0031382 6.35498 0.454582 3.57793C0.712981 2.0197 1.72988 1.0899 3.30249 0.988722C8.61118 0.621525 13.9552 0.665042 19.2521 0.836353C19.8115 0.852057 20.3748 0.937892 20.9264 1.0356C23.6493 1.51213 23.7157 4.20323 23.8922 6.46863C24.0683 8.75741 23.9939 11.0579 23.6575 13.3311C23.3876 15.2133 22.8711 16.7916 20.6917 16.944C17.961 17.1432 15.2929 17.3037 12.5545 17.2526C12.5546 17.2405 12.5389 17.2405 12.5311 17.2405ZM9.64009 12.4754C11.6979 11.2958 13.7165 10.1358 15.7625 8.96409C13.7009 7.78445 11.6861 6.62448 9.64009 5.45275V12.4754Z" fill="#555555"/>
</svg>
