<svg width="213" height="26" viewBox="0 0 213 26" fill="none" xmlns="http://www.w3.org/2000/svg">
<path d="M15.251 17.3613V19.832C13.6038 20.7305 11.7021 21.1797 9.5459 21.1797C7.79395 21.1797 6.30778 20.8278 5.0874 20.124C3.86702 19.4202 2.9012 18.4507 2.18994 17.2153C1.47868 15.98 1.12305 14.6436 1.12305 13.2061C1.12305 10.9225 1.93538 9.00212 3.56006 7.44482C5.19222 5.88753 7.20247 5.10889 9.59082 5.10889C11.238 5.10889 13.0685 5.53939 15.0825 6.40039V8.81494C13.2482 7.76676 11.4551 7.24268 9.70312 7.24268C7.90625 7.24268 6.4126 7.81169 5.22217 8.94971C4.03923 10.0802 3.44775 11.499 3.44775 13.2061C3.44775 14.9281 4.03174 16.3431 5.19971 17.4512C6.36768 18.5592 7.86133 19.1133 9.68066 19.1133C11.5824 19.1133 13.4391 18.5293 15.251 17.3613ZM22.6743 10.6455C24.2466 10.6455 25.5531 11.1546 26.5938 12.1729C27.6344 13.1836 28.1548 14.4564 28.1548 15.9912C28.1548 17.4811 27.627 18.7202 26.5713 19.7085C25.5156 20.6893 24.1867 21.1797 22.5845 21.1797C21.0347 21.1797 19.7394 20.6818 18.6987 19.686C17.658 18.6828 17.1377 17.4325 17.1377 15.9351C17.1377 14.4227 17.6618 13.1649 18.71 12.1616C19.7656 11.1509 21.0871 10.6455 22.6743 10.6455ZM22.562 12.4873C21.5812 12.4873 20.7764 12.8092 20.1475 13.4531C19.5186 14.097 19.2041 14.9168 19.2041 15.9126C19.2041 16.9009 19.526 17.7095 20.1699 18.3384C20.8138 18.9598 21.6411 19.2705 22.6519 19.2705C23.6551 19.2705 24.4749 18.9561 25.1113 18.3271C25.7552 17.6908 26.0771 16.8784 26.0771 15.8901C26.0771 14.9093 25.744 14.097 25.0776 13.4531C24.4113 12.8092 23.5728 12.4873 22.562 12.4873ZM32.4673 10.668V11.9819C33.3807 10.9712 34.4176 10.4658 35.5781 10.4658C36.222 10.4658 36.821 10.6343 37.375 10.9712C37.929 11.3006 38.3483 11.7573 38.6328 12.3413C38.9248 12.9178 39.0708 13.835 39.0708 15.0928V21H37.0269V15.1152C37.0269 14.0596 36.8659 13.3071 36.5439 12.8579C36.222 12.4012 35.6829 12.1729 34.9268 12.1729C33.9609 12.1729 33.1411 12.6558 32.4673 13.6216V21H30.3784V10.668H32.4673ZM40.4746 12.3076L44.3154 8.53418V10.668H47.5835V12.5098H44.3154V17.5747C44.3154 18.7576 44.8058 19.3491 45.7866 19.3491C46.5203 19.3491 47.2952 19.1021 48.1113 18.6079V20.5171C47.3252 20.9588 46.4679 21.1797 45.5396 21.1797C44.6037 21.1797 43.825 20.9064 43.2036 20.3599C43.009 20.1951 42.848 20.0117 42.7207 19.8096C42.5934 19.5999 42.4849 19.3304 42.395 19.001C42.3127 18.6641 42.2715 18.0277 42.2715 17.0918V12.5098H40.4746V12.3076ZM50.6382 6.32178C50.9751 6.32178 51.2633 6.43783 51.5029 6.66992C51.7425 6.90202 51.8623 7.18652 51.8623 7.52344C51.8623 7.85286 51.7425 8.13737 51.5029 8.37695C51.2633 8.61654 50.9751 8.73633 50.6382 8.73633C50.3237 8.73633 50.0467 8.61654 49.8071 8.37695C49.5675 8.12988 49.4478 7.84538 49.4478 7.52344C49.4478 7.20898 49.5675 6.93197 49.8071 6.69238C50.0467 6.44531 50.3237 6.32178 50.6382 6.32178ZM49.6274 10.668H51.6714V21H49.6274V10.668ZM56.6802 10.668V11.9819C57.5936 10.9712 58.6305 10.4658 59.791 10.4658C60.4349 10.4658 61.0339 10.6343 61.5879 10.9712C62.1419 11.3006 62.5612 11.7573 62.8457 12.3413C63.1377 12.9178 63.2837 13.835 63.2837 15.0928V21H61.2397V15.1152C61.2397 14.0596 61.0788 13.3071 60.7568 12.8579C60.4349 12.4012 59.8958 12.1729 59.1396 12.1729C58.1738 12.1729 57.354 12.6558 56.6802 13.6216V21H54.5913V10.668H56.6802ZM72.7173 21V19.686C72.283 20.1577 71.7852 20.5246 71.2236 20.7866C70.6696 21.0487 70.1156 21.1797 69.5615 21.1797C68.9102 21.1797 68.3075 21.0187 67.7534 20.6968C67.2069 20.3674 66.7913 19.9256 66.5068 19.3716C66.2298 18.8101 66.0913 17.8817 66.0913 16.5864V10.668H68.1353V16.564C68.1353 17.6496 68.2887 18.4095 68.5957 18.8438C68.9102 19.2705 69.4567 19.4839 70.2354 19.4839C71.2087 19.4839 72.036 19.0085 72.7173 18.0576V10.668H74.7612V21H72.7173ZM86.4409 16.0137H79.1748C79.2272 17.002 79.5566 17.7881 80.1631 18.3721C80.777 18.9561 81.5669 19.248 82.5327 19.248C83.8804 19.248 85.1232 18.8288 86.2612 17.9902V19.9893C85.6323 20.4085 85.0072 20.708 84.3857 20.8877C83.7718 21.0674 83.0493 21.1572 82.2183 21.1572C81.0802 21.1572 80.1593 20.9214 79.4556 20.4497C78.7518 19.978 78.1865 19.3454 77.7598 18.5518C77.3405 17.7507 77.1309 16.826 77.1309 15.7778C77.1309 14.2056 77.5763 12.929 78.4673 11.9482C79.3582 10.96 80.515 10.4658 81.9375 10.4658C83.3076 10.4658 84.4007 10.945 85.2168 11.9033C86.0329 12.8617 86.4409 14.1457 86.4409 15.7554V16.0137ZM79.2197 14.7896H84.4194C84.367 13.9735 84.1237 13.3446 83.6895 12.9028C83.2552 12.4611 82.6712 12.2402 81.9375 12.2402C81.2038 12.2402 80.6011 12.4611 80.1294 12.9028C79.6652 13.3446 79.362 13.9735 79.2197 14.7896ZM107.97 10.668H110.16L105.6 21.1797H104.96L101.894 13.981L98.8843 21.1797H98.2217L93.6172 10.668H95.8071L98.5137 16.9346L101.142 10.668H102.658L105.274 16.9346L107.97 10.668ZM112.675 6.32178C113.012 6.32178 113.3 6.43783 113.54 6.66992C113.78 6.90202 113.899 7.18652 113.899 7.52344C113.899 7.85286 113.78 8.13737 113.54 8.37695C113.3 8.61654 113.012 8.73633 112.675 8.73633C112.361 8.73633 112.084 8.61654 111.844 8.37695C111.605 8.12988 111.485 7.84538 111.485 7.52344C111.485 7.20898 111.605 6.93197 111.844 6.69238C112.084 6.44531 112.361 6.32178 112.675 6.32178ZM111.665 10.668H113.708V21H111.665V10.668ZM115.225 12.3076L119.065 8.53418V10.668H122.333V12.5098H119.065V17.5747C119.065 18.7576 119.556 19.3491 120.537 19.3491C121.27 19.3491 122.045 19.1021 122.861 18.6079V20.5171C122.075 20.9588 121.218 21.1797 120.29 21.1797C119.354 21.1797 118.575 20.9064 117.954 20.3599C117.759 20.1951 117.598 20.0117 117.471 19.8096C117.343 19.5999 117.235 19.3304 117.145 19.001C117.063 18.6641 117.021 18.0277 117.021 17.0918V12.5098H115.225V12.3076ZM124.288 5.31104H126.332V12.0269C127.185 10.9862 128.244 10.4658 129.51 10.4658C130.199 10.4658 130.816 10.638 131.363 10.9824C131.909 11.3268 132.314 11.8022 132.576 12.4087C132.845 13.0151 132.98 13.9173 132.98 15.1152V21H130.936V14.6099C130.936 13.8537 130.749 13.2472 130.375 12.7905C130.008 12.3263 129.521 12.0942 128.915 12.0942C128.465 12.0942 128.042 12.2103 127.646 12.4424C127.249 12.6745 126.811 13.0601 126.332 13.5991V21H124.288V5.31104Z" fill="black"/>
<g clip-path="url(#clip0_126:198)">
<path d="M150.744 4.00256H151.375C153.567 4.0478 155.723 4.88467 157.272 6.36616C156.7 6.9203 156.116 7.45183 155.557 8.00597C154.687 7.25957 153.639 6.68281 152.495 6.47925C150.803 6.13997 148.981 6.44532 147.563 7.36135C146.014 8.32262 144.966 9.95113 144.74 11.6927C144.49 13.4117 145.002 15.2211 146.181 16.5556C147.313 17.8562 149.04 18.6704 150.827 18.727C152.495 18.8174 154.234 18.3311 155.449 17.2228C156.402 16.4425 156.843 15.2551 156.986 14.1015C155.009 14.1015 153.031 14.1129 151.054 14.1015V11.7719H159.381C159.809 14.2712 159.19 17.0871 157.189 18.874C155.854 20.1406 154.008 20.887 152.126 21.034C150.303 21.2036 148.421 20.8757 146.801 20.0388C144.859 19.0549 143.31 17.3925 142.548 15.436C141.833 13.6379 141.821 11.6022 142.488 9.7928C143.096 8.14168 144.263 6.68281 145.764 5.66499C147.206 4.65849 148.957 4.10434 150.744 4.00256Z" fill="#3780FF"/>
<path d="M198.514 4.59009H201.063V20.7394C200.218 20.7394 199.36 20.7507 198.514 20.7281C198.526 15.3563 198.514 9.9732 198.514 4.59009Z" fill="#38B137"/>
<path d="M165.051 10.188C166.624 9.90524 168.327 10.2219 169.626 11.1153C170.805 11.9069 171.627 13.1509 171.877 14.508C172.199 16.08 171.794 17.799 170.722 19.0429C169.566 20.434 167.672 21.1804 165.826 21.0673C164.134 20.9768 162.49 20.1739 161.489 18.862C160.358 17.4144 160.084 15.4241 160.703 13.7277C161.322 11.9069 163.074 10.5159 165.051 10.188ZM165.409 12.3367C164.765 12.495 164.17 12.8456 163.741 13.3432C162.585 14.655 162.657 16.7924 163.931 18.0138C164.658 18.715 165.754 19.0429 166.767 18.8507C167.708 18.6924 168.53 18.093 168.982 17.3014C169.769 15.9556 169.542 14.1009 168.339 13.0492C167.565 12.3706 166.433 12.0879 165.409 12.3367Z" fill="#FA3913"/>
<path d="M177.679 10.1879C179.477 9.85998 181.443 10.335 182.789 11.5337C184.981 13.3997 185.219 16.8942 183.349 19.0429C182.217 20.4 180.383 21.1464 178.572 21.0673C176.845 21.022 175.141 20.2078 174.117 18.862C172.961 17.3805 172.711 15.3449 173.366 13.6146C174.021 11.8504 175.737 10.5046 177.679 10.1879ZM178.036 12.3367C177.393 12.495 176.797 12.8456 176.368 13.3319C175.225 14.6211 175.272 16.7246 176.499 17.9573C177.226 18.6924 178.358 19.0542 179.406 18.8507C180.335 18.681 181.169 18.093 181.622 17.3013C182.396 15.9443 182.17 14.0896 180.955 13.0378C180.18 12.3593 179.048 12.0879 178.036 12.3367Z" fill="#FCBD06"/>
<path d="M188.388 10.844C189.758 10.0297 191.581 9.80354 193.058 10.5047C193.523 10.697 193.904 11.0249 194.273 11.3529C194.285 11.0475 194.273 10.7309 194.285 10.4142C195.083 10.4255 195.882 10.4142 196.692 10.4255V20.4001C196.68 21.9042 196.275 23.4988 195.131 24.5958C193.88 25.8058 191.962 26.179 190.235 25.9302C188.388 25.6701 186.78 24.3922 186.065 22.775C186.78 22.4471 187.531 22.187 188.269 21.8816C188.686 22.809 189.532 23.6006 190.592 23.7815C191.652 23.9625 192.88 23.7137 193.57 22.8768C194.309 22.0173 194.309 20.8412 194.273 19.7894C193.725 20.2983 193.094 20.7507 192.332 20.9203C190.676 21.3614 188.853 20.8186 187.578 19.7555C186.292 18.6925 185.529 17.0526 185.601 15.4241C185.637 13.5808 186.733 11.8052 188.388 10.844ZM190.854 12.2915C190.128 12.4046 189.449 12.7891 188.984 13.3207C187.864 14.5873 187.864 16.6116 188.996 17.8556C189.639 18.5907 190.676 18.9978 191.676 18.896C192.617 18.8055 193.487 18.2401 193.952 17.4598C194.738 16.1366 194.607 14.3385 193.547 13.1849C192.891 12.4725 191.843 12.1219 190.854 12.2915Z" fill="#3780FF"/>
<path d="M204.125 11.4207C205.555 10.1541 207.758 9.72436 209.593 10.3916C211.332 11.0136 212.44 12.5856 213 14.2027C210.415 15.2206 207.842 16.2271 205.257 17.2449C205.614 17.8895 206.162 18.4776 206.901 18.7151C207.937 19.0656 209.176 18.9412 210.046 18.2853C210.391 18.0365 210.665 17.7086 210.927 17.3919C211.582 17.8103 212.238 18.2175 212.893 18.6359C211.964 19.9591 210.403 20.8864 208.723 21.0334C206.865 21.2483 204.887 20.5697 203.684 19.19C201.707 17.0187 201.897 13.3772 204.125 11.4207ZM205.4 13.5129C204.995 14.067 204.828 14.7456 204.84 15.4128C206.567 14.7343 208.295 14.0557 210.022 13.3659C209.736 12.7326 209.045 12.3481 208.342 12.2463C207.21 12.054 206.031 12.6308 205.4 13.5129Z" fill="#FA3913"/>
</g>
<defs>
<clipPath id="clip0_126:198">
<rect width="71" height="22" fill="white" transform="translate(142 4)"/>
</clipPath>
</defs>
</svg>
